<svg xmlns="http://www.w3.org/2000/svg" width="343" height="210.974" viewBox="0 0 343 210.974">
  <g id="undraw_under_construction_46pa" transform="translate(0.02 0)">
    <path id="Path_47" data-name="Path 47" d="M354.07,223.263a70.291,70.291,0,0,1-2.059,16.96q-.693,2.8-1.61,5.492a64.873,64.873,0,0,1-2.6,6.5q-.743,1.608-1.57,3.151a42.39,42.39,0,0,1-3.544,17.033,43.912,43.912,0,0,1-21.311,21.957,44.827,44.827,0,0,1-19.025,4.368H76.188a56.983,56.983,0,0,1-28.661-7.662l-.134-.076q-1.861-1.089-3.628-2.306a56.909,56.909,0,0,1-7.446-6.139A55.413,55.413,0,0,1,28.132,272.4a54.124,54.124,0,0,1-8.326-28.9,68.146,68.146,0,0,1-8.736-33.746,66.873,66.873,0,0,1,13.515-40.93,57.546,57.546,0,0,1,5.74-6.386,53.416,53.416,0,0,1,6.564-5.373,51.073,51.073,0,0,1,5.824-3.495c.842-.428,1.686-.833,2.545-1.209.754-.335,1.517-.646,2.289-.941q1.389-.527,2.813-.97t2.81-.775q2.038-.5,4.147-.81c1.165-.172,2.33-.291,3.495-.381.926-.07,1.861-.108,2.8-.119h.51c1.037,0,2.068.041,3.09.111.108-.215.224-.434.332-.646.408-.778.83-1.552,1.255-2.309a.073.073,0,0,1,0-.02c.073-.134.146-.265.221-.393.344-.62.7-1.235,1.069-1.843.169-.291.335-.565.507-.839a2.231,2.231,0,0,1,.119-.2q.262-.437.533-.874,1.348-2.155,2.8-4.234l.248-.355c.151-.215.291-.425.46-.641.4-.562.815-1.127,1.232-1.68.291-.4.582-.789.9-1.165q1.136-1.456,2.33-2.912T81.7,127.5c.116-.131.233-.259.355-.387l1.243-1.357h0c.061-.064.114-.122.172-.181h0c.149-.16.291-.32.451-.475.667-.708,1.351-1.4,2.038-2.091a111.005,111.005,0,0,1,11.153-9.718c.154-.122.312-.239.466-.355.74-.556,1.491-1.107,2.242-1.648a118.033,118.033,0,0,1,12.933-8.067c.309-.178.623-.344.941-.507a123.473,123.473,0,0,1,12.374-5.7c2.3-.911,4.659-1.768,7.03-2.551,1.578-.518,3.163-1.011,4.767-1.474q3.762-1.083,7.577-1.942a134.931,134.931,0,0,1,22.784-3.1q3.494-.178,7.068-.183a135.414,135.414,0,0,1,34.072,4.31,1.229,1.229,0,0,0,1.057.55h.978c.425.116.847.233,1.273.355Q216.237,94,219.7,95.215l.582.21a125.347,125.347,0,0,1,16.573,7.28,119.593,119.593,0,0,1,13.876,8.573q1.022.734,2.015,1.479,1.206-.772,2.452-1.479a48.23,48.23,0,0,1,10.157-4.33,46.332,46.332,0,0,1,22.784-.891,50.416,50.416,0,0,1,25.528,14.4,59.57,59.57,0,0,1,7.656,9.721c.16.25.32.5.475.76a64.065,64.065,0,0,1,4.875,9.718c.049.125.1.242.143.364a67.283,67.283,0,0,1,3,9.712c.035.169.076.335.111.5a69.924,69.924,0,0,1,1.433,9.718,1.883,1.883,0,0,0,.023.358q.184,2.536.186,5.125c0,1.543-.052,3.075-.149,4.6,0,.166-.023.338-.038.51-.026.44-.064.874-.1,1.316a55.272,55.272,0,0,1,6.226,5.874q1.273,1.389,2.464,2.883a61.332,61.332,0,0,1,6.348,9.718A68.2,68.2,0,0,1,354.07,223.263Z" transform="translate(-11.09 -87.76)" fill="#116d3b" opacity="0.1"/>
    <path id="Path_48" data-name="Path 48" d="M409.57,767.19c0,1.989-6.852,3.853-18.809,5.454H164.595a56.984,56.984,0,0,1-28.661-7.662l-.134-.076c3.436-1.252,9.639-2.42,18.081-3.474h0l.379-.047c3.786-.463,8.017-.9,12.641-1.319a2.876,2.876,0,0,0,.352-.032h0q5.5-.489,11.71-.917c.131,0,.259-.023.39-.029q2.394-.172,4.887-.326h0l.641-.041c12.1-.751,25.854-1.351,40.77-1.747h.018q3.133-.087,6.334-.154,3.559-.084,7.2-.148c1.855-.041,3.733-.07,5.617-.1h.044c8.5-.128,17.283-.192,26.264-.192,22.208,0,43.2.4,61.8,1.133h.052c2.86.111,5.667.233,8.4.358l2.33.111q4.633.221,9.028.475h0C387.194,760.416,409.57,763.6,409.57,767.19Z" transform="translate(-99.497 -561.671)" fill="#116d3b" opacity="0.1"/>
    <g id="Group_3" data-name="Group 3" transform="translate(180.93 115.024)" opacity="0.2">
      <path id="Path_49" data-name="Path 49" d="M676.223,741.637a5.527,5.527,0,0,1-.108.935q-3.04-.484-6.115-.874v-.251a4.915,4.915,0,0,1,.728-2.469,2.709,2.709,0,0,1,4.93.151A4.913,4.913,0,0,1,676.223,741.637Z" transform="translate(-659.062 -663.289)" fill="#3f3d56"/>
      <ellipse id="Ellipse_4" data-name="Ellipse 4" cx="4.08" cy="3.116" rx="4.08" ry="3.116" transform="translate(10.971 77.254) rotate(-88.19)" fill="#3f3d56"/>
      <ellipse id="Ellipse_5" data-name="Ellipse 5" cx="4.08" cy="3.116" rx="4.08" ry="3.116" transform="translate(11.13 72.269) rotate(-88.19)" fill="#3f3d56"/>
      <ellipse id="Ellipse_6" data-name="Ellipse 6" cx="4.08" cy="3.116" rx="4.08" ry="3.116" transform="translate(11.286 67.283) rotate(-88.19)" fill="#3f3d56"/>
      <ellipse id="Ellipse_7" data-name="Ellipse 7" cx="4.08" cy="3.116" rx="4.08" ry="3.116" transform="translate(11.442 62.297) rotate(-88.19)" fill="#3f3d56"/>
      <path id="Path_50" data-name="Path 50" d="M636.526,506.569a14.454,14.454,0,0,1-1.107-1.747l8.23-1.086-8.859-.213a14.962,14.962,0,0,1,.09-11.835l11.683,6.538-10.7-8.4A14.933,14.933,0,1,1,659.986,507.3a14.789,14.789,0,0,1,1.616,2.775l-10.8,5.184,11.453-3.445a14.951,14.951,0,0,1-2.86,13.952,14.933,14.933,0,1,1-23.46-.74,14.933,14.933,0,0,1,.582-18.457Z" transform="translate(-632.44 -482.747)" fill="#116d3b"/>
      <path id="Path_51" data-name="Path 51" d="M662.889,598.54a14.852,14.852,0,0,1-3.495,9.127,14.933,14.933,0,1,1-23.46-.74C634.022,604.327,662.942,596.866,662.889,598.54Z" transform="translate(-632.44 -564.648)" opacity="0.1"/>
    </g>
    <g id="Group_4" data-name="Group 4" transform="translate(136.666 115.024)" opacity="0.2">
      <path id="Path_52" data-name="Path 52" d="M524.223,741.637a5.539,5.539,0,0,1-.108.935q-3.04-.484-6.115-.874v-.251a4.914,4.914,0,0,1,.728-2.469,2.709,2.709,0,0,1,4.93.151A4.913,4.913,0,0,1,524.223,741.637Z" transform="translate(-507.062 -663.289)" fill="#3f3d56"/>
      <ellipse id="Ellipse_8" data-name="Ellipse 8" cx="4.08" cy="3.116" rx="4.08" ry="3.116" transform="translate(10.968 77.255) rotate(-88.19)" fill="#3f3d56"/>
      <ellipse id="Ellipse_9" data-name="Ellipse 9" cx="4.08" cy="3.116" rx="4.08" ry="3.116" transform="translate(11.127 72.27) rotate(-88.19)" fill="#3f3d56"/>
      <ellipse id="Ellipse_10" data-name="Ellipse 10" cx="4.08" cy="3.116" rx="4.08" ry="3.116" transform="translate(11.283 67.284) rotate(-88.19)" fill="#3f3d56"/>
      <ellipse id="Ellipse_11" data-name="Ellipse 11" cx="4.08" cy="3.116" rx="4.08" ry="3.116" transform="translate(11.439 62.298) rotate(-88.19)" fill="#3f3d56"/>
      <path id="Path_53" data-name="Path 53" d="M484.526,506.569a14.454,14.454,0,0,1-1.107-1.747l8.23-1.086-8.859-.213a14.963,14.963,0,0,1,.09-11.835l11.683,6.538-10.7-8.4A14.933,14.933,0,1,1,507.986,507.3a14.8,14.8,0,0,1,1.616,2.775l-10.8,5.184,11.453-3.445a14.951,14.951,0,0,1-2.86,13.952,14.933,14.933,0,1,1-23.46-.74,14.933,14.933,0,0,1,.582-18.457Z" transform="translate(-480.44 -482.747)" fill="#116d3b"/>
      <path id="Path_54" data-name="Path 54" d="M510.889,598.54a14.852,14.852,0,0,1-3.495,9.127,14.933,14.933,0,1,1-23.46-.74C482.022,604.327,510.942,596.866,510.889,598.54Z" transform="translate(-480.44 -564.648)" opacity="0.1"/>
    </g>
    <g id="Group_5" data-name="Group 5" transform="translate(241.719 45.78)" opacity="0.2">
      <path id="Path_55" data-name="Path 55" d="M925.354,743.134a10.864,10.864,0,0,1-.213,1.771q-5.853-.935-11.791-1.672v-.481a9.465,9.465,0,0,1,1.4-4.755,5.223,5.223,0,0,1,9.5.291A9.474,9.474,0,0,1,925.354,743.134Z" transform="translate(-892.335 -592.355)" fill="#3f3d56"/>
      <ellipse id="Ellipse_12" data-name="Ellipse 12" cx="7.857" cy="6.002" rx="7.857" ry="6.002" transform="translate(21.091 148.666) rotate(-88.19)" fill="#3f3d56"/>
      <ellipse id="Ellipse_13" data-name="Ellipse 13" cx="7.857" cy="6.002" rx="7.857" ry="6.002" transform="translate(21.393 139.068) rotate(-88.19)" fill="#3f3d56"/>
      <ellipse id="Ellipse_14" data-name="Ellipse 14" cx="7.857" cy="6.002" rx="7.857" ry="6.002" transform="translate(21.699 129.469) rotate(-88.19)" fill="#3f3d56"/>
      <ellipse id="Ellipse_15" data-name="Ellipse 15" cx="7.857" cy="6.002" rx="7.857" ry="6.002" transform="translate(21.666 119.456) rotate(-88.282)" fill="#3f3d56"/>
      <path id="Path_56" data-name="Path 56" d="M849.03,290.774a28.914,28.914,0,0,1-2.129-3.358l15.842-2.091-17.05-.411a28.8,28.8,0,0,1,.169-22.784l22.5,12.583-20.6-16.168A28.748,28.748,0,1,1,894.2,292.2a28.75,28.75,0,0,1,3.113,5.344l-20.8,9.986,22.048-6.64a28.757,28.757,0,0,1-5.484,26.835,28.748,28.748,0,1,1-45.167-1.424,28.757,28.757,0,0,1,1.118-35.528Z" transform="translate(-841.186 -244.965)" fill="#116d3b"/>
      <path id="Path_57" data-name="Path 57" d="M899.816,467.694a28.637,28.637,0,0,1-6.7,17.572,28.748,28.748,0,1,1-45.167-1.424C844.241,478.83,899.918,464.471,899.816,467.694Z" transform="translate(-841.214 -402.502)" opacity="0.1"/>
    </g>
    <path id="Path_58" data-name="Path 58" d="M157.82,220.724l3.055-.009h4.307l5.446-88.464,53.929-89.993-2.344-2.516V33.37l-58.324,96.8Z" transform="translate(-111.875 -23.653)" fill="#f1c0c0"/>
    <path id="Path_59" data-name="Path 59" d="M169.43,236.223h3.981l5.446-88.464,53.929-89.993-2.344-2.516-55.627,91.161Z" transform="translate(-120.104 -39.161)" opacity="0.1"/>
    <path id="Path_60" data-name="Path 60" d="M126.91,664.205,266.648,674.9l.119.009L402,666.59l.1-.006v-5.711L253.092,658.14l-124.321-.119h-.909l-.1.641Z" transform="translate(-89.967 -466.398)" fill="#f1c0c0"/>
    <path id="Path_61" data-name="Path 61" d="M126.91,664.205,266.648,674.9l.119.009L402,666.59l.1-.111v-5.486h-.119l-135.337,4.52L128.771,658.02h-.02l-.245.16-.743.48Z" transform="translate(-89.967 -466.398)" opacity="0.1"/>
    <path id="Path_62" data-name="Path 62" d="M126.91,664.6l139.738,10.693V665.9L128.506,658.57l-.743.481Z" transform="translate(-89.967 -466.788)" opacity="0.1"/>
    <path id="Path_63" data-name="Path 63" d="M378.88,39.785l61.606,66.122-1.9,116.31,5.233.632.087.012h5.233l.626-111.959,115.357,38.533,1.945,68.609,4.211.472,1.427.16-3.3-74L448.809,102.34,382.686,33.6H378.88Z" transform="translate(-268.56 -23.816)" fill="#f1c0c0"/>
    <path id="Path_64" data-name="Path 64" d="M620.65,291.7l.475,2.14,115.357,38.533,1.945,68.609,4.211.472-3.3-70.508Z" transform="translate(-439.924 -206.754)" opacity="0.1"/>
    <path id="Path_65" data-name="Path 65" d="M378.88,39.785l61.606,66.122-1.9,116.31,5.233.632L445.241,102.1,378.88,33.6Z" transform="translate(-268.56 -23.816)" opacity="0.1"/>
    <path id="Path_66" data-name="Path 66" d="M621.42,433.6l42.31,8.332.015,0,74.1,14.6,3.393-1.36-.012-.239-.221-4.732L621.464,426.05Z" transform="translate(-440.47 -301.98)" fill="#f1c0c0"/>
    <path id="Path_67" data-name="Path 67" d="M766.76,480.61l74.1,14.6,3.393-1.36-.012-.239Z" transform="translate(-543.485 -340.651)" opacity="0.1"/>
    <path id="Path_68" data-name="Path 68" d="M776.49,350.56l1.145,63,.591,32.322,5.21-.175,3.279-.111L785.7,351.472l-2.26-.751-.5-.16Z" transform="translate(-550.382 -248.473)" fill="#f1c0c0"/>
    <path id="Path_69" data-name="Path 69" d="M776.65,350.51v.015l1.1,63,.591,32.321,5.21-.175V350.51Z" transform="translate(-550.495 -248.438)" opacity="0.1"/>
    <path id="Path_70" data-name="Path 70" d="M486.448,483.808a6.641,6.641,0,0,1,.874.568,5.778,5.778,0,0,1,.874.958c1.249,1.616,2.4,3.495,2.28,5.533a2.251,2.251,0,0,1-.649,1.6,2.911,2.911,0,0,1-1.931.46,4.111,4.111,0,0,1-2.14-.379c-.635-.379-1.165-1.115-1.916-1.1a.983.983,0,0,1-.32,0c-.259-.084-.312-.425-.48-.641-.291-.387-.906-.291-1.363-.122a1.976,1.976,0,0,1-1.415.227,1.471,1.471,0,0,1-.615-.614,13.526,13.526,0,0,1-1.514-5.877c-.125-1.235-1.08-5.446,1.555-4.488A21.848,21.848,0,0,1,483,481.811Z" transform="translate(-341.946 -365.632)" fill="#3f3d56"/>
    <path id="Path_71" data-name="Path 71" d="M497.105,491.14a1.3,1.3,0,0,0,1.6-.064,2.409,2.409,0,0,0,.778-1.508c.291-.09.44.291.626.524.326.4.99.39,1.287.813.207.291.16.7.306,1.025.189.425.658.646.979.99a3.374,3.374,0,0,1,.641,1.278l.478,1.433a7.084,7.084,0,0,1,.437,1.855,2.4,2.4,0,0,1-.553,1.773,4.7,4.7,0,0,1-3.541.635,2.612,2.612,0,0,1-1.57-1.922,24.251,24.251,0,0,1-.323-2.568,10.064,10.064,0,0,0-.728-2.44c-.256-.606-.961-1.509-.949-2.152C496.779,490.811,496.931,491,497.105,491.14Z" transform="translate(-355.207 -372.547)" fill="#3f3d56"/>
    <path id="Path_72" data-name="Path 72" d="M492.332,475.734a4.811,4.811,0,0,1-.236-1.278,5.566,5.566,0,0,1,.8-2.475l-3.329.451a1.474,1.474,0,0,0-1.077.472,1.165,1.165,0,0,0,0,1.075,5.491,5.491,0,0,1,.4,1.04,5.188,5.188,0,0,0,.108.935,1.979,1.979,0,0,0,.428.6,20.19,20.19,0,0,1,2.376,3.529c-.02-.035,2.006-1.6,1.925-2.117-.047-.291-.632-.641-.818-.92A4.686,4.686,0,0,1,492.332,475.734Z" transform="translate(-349.387 -360.091)" fill="#be6f72"/>
    <path id="Path_73" data-name="Path 73" d="M441.758,358.04v2.868l-49.119,9.581-2.548,1.543H381.3v-1.616l48.259-11.66Z" transform="translate(-270.275 -253.775)" fill="#f1c0c0"/>
    <path id="Path_74" data-name="Path 74" d="M441.758,367.89l-49.119,9.581-2.548,1.543H381.3l48.618-10.4Z" transform="translate(-270.275 -260.757)" opacity="0.1"/>
    <path id="Path_75" data-name="Path 75" d="M444.669,722.054a3.806,3.806,0,0,0-4.63-.984,1.221,1.221,0,0,0-.425.332c-.291.408-.1.97-.079,1.473.067,1.229-.911,2.228-1.791,3.087a4.236,4.236,0,0,0-1.165,1.578,1.479,1.479,0,0,0,.515,1.747,2.145,2.145,0,0,0,.8.221,8.611,8.611,0,0,0,2.825.079,3.06,3.06,0,0,0,2.242-1.561,1.646,1.646,0,0,1,.376-.62c.513-.4,1.3.07,1.881-.218.48-.239.5-.614.507-1.11A6.425,6.425,0,0,0,444.669,722.054Z" transform="translate(-312.622 -536.361)" fill="#116d3b"/>
    <path id="Path_76" data-name="Path 76" d="M473.236,716.773a9.586,9.586,0,0,1,.454,2.979,2.875,2.875,0,0,1-.271,1.7,2.319,2.319,0,0,1-1.517.874,3.479,3.479,0,0,1-3.4-.949,3.592,3.592,0,0,1-.614-2.7c.093-.783.291-1.7-.271-2.257-.146-.149-.335-.253-.469-.414a1.387,1.387,0,0,1-.087-1.328,5.765,5.765,0,0,0,.457-1.313,16.958,16.958,0,0,1,4.3.329c.492.242.416.646.565,1.136C472.589,715.506,472.985,716.12,473.236,716.773Z" transform="translate(-334.2 -531.132)" fill="#116d3b"/>
    <path id="Path_77" data-name="Path 77" d="M445.046,579.389a3.236,3.236,0,0,1,1.185,2.385c.329,2.49-.248,5.006-.291,7.519-.041,3.521.978,7.106.108,10.516-.521,2.038-.079,4.368-.568,6.427-.146.612-.414,1.188-.553,1.8a7.852,7.852,0,0,0,.425,4.007,4.137,4.137,0,0,1,.247,1.086,3.909,3.909,0,0,1-.425,1.643l-1.747,4.132c-.2.463-.964.539-1.456.6a3.642,3.642,0,0,1-2.7-.384,3.45,3.45,0,0,1-1.028-2.432,37.281,37.281,0,0,1-.291-5.192,4.275,4.275,0,0,0-.119-1.348,11.817,11.817,0,0,1-.609-1.456,5.849,5.849,0,0,1,.352-2.039,6.143,6.143,0,0,0-.029-1.89c-.114-.932-.245-1.864-.393-2.79a12.362,12.362,0,0,1,.291-3.873,10.681,10.681,0,0,0-.291-3.675,10.132,10.132,0,0,1-.364,2.912c-.154.463-.376.906-.51,1.377-.6,2.117.676,4.339.5,6.532a16.179,16.179,0,0,0-.373,3.049,10.282,10.282,0,0,0,.658,2.123,2.752,2.752,0,0,1,0,2.169c-.947,1.788-.239,4.22.609,6.054a8.18,8.18,0,0,1,.448,1.008,12.039,12.039,0,0,1,.108,2.577,1.625,1.625,0,0,1-1.366-.411c-.128-.134-.233-.291-.358-.431a3.555,3.555,0,0,0-1.217-.76,1.6,1.6,0,0,0-.874-.2,1.747,1.747,0,0,0-.83.515,8.128,8.128,0,0,1-.914.7,1.085,1.085,0,0,1-.466.207.41.41,0,0,1-.428-.218.518.518,0,0,1-.032-.151,23.04,23.04,0,0,1-.172-2.65c0-1.523-1.823-2.571-2.053-4.077-.183-1.214.157-2.452.044-3.675a17.893,17.893,0,0,1-.218-1.875c0-.408.093-.807.125-1.211a9.055,9.055,0,0,0-.02-1.348l-.09-1.407a12.153,12.153,0,0,0-.731-4.077,13.852,13.852,0,0,1-1.136-4.683c-.058-1.019-.02-2.039-.137-3.061a15.069,15.069,0,0,1-.271-2.766c.055-.716.291-1.409.347-2.126a10.864,10.864,0,0,0-.821-4.036,5.974,5.974,0,0,1-.175-4.054,1.331,1.331,0,0,1,.373-.542,1.627,1.627,0,0,1,.687-.256,53.328,53.328,0,0,1,15.207-.97A5.049,5.049,0,0,1,445.046,579.389Z" transform="translate(-305.29 -435.584)" fill="#3f3d56"/>
    <circle id="Ellipse_16" data-name="Ellipse 16" cx="4.665" cy="4.665" r="4.665" transform="translate(118.558 103.546)" fill="#be6f72"/>
    <path id="Path_78" data-name="Path 78" d="M426.8,468.232a1.665,1.665,0,0,1,0,.813,1.84,1.84,0,0,1-.306.513A13.167,13.167,0,0,1,425,471.182a2.705,2.705,0,0,0,1.395,1.377,8.1,8.1,0,0,0,1.925.55,2.018,2.018,0,0,0,1.887-.326l2.592-1.552a5.178,5.178,0,0,0,1.078-.778,2.653,2.653,0,0,0,.751-1.823.5.5,0,0,0-.093-.344.611.611,0,0,0-.355-.148,3.158,3.158,0,0,1-2.038-1.779,9.425,9.425,0,0,1-.708-2.7l-2.764,1.456c-.411.218-.818.437-1.243.626-.271.122-.818.224-1.01.472C426.048,466.671,426.7,467.682,426.8,468.232Z" transform="translate(-304.479 -354.194)" fill="#be6f72"/>
    <path id="Path_79" data-name="Path 79" d="M422.7,479.346a3.072,3.072,0,0,0-.894,1.208,3.149,3.149,0,0,0,.163,1.774,52.915,52.915,0,0,1,1.747,7.51c.245,1.747.335,3.521.454,5.288.245,3.605.6,9.354,1.075,12.936a34.355,34.355,0,0,0,5.184-.617c3.238-.344,6.573.443,9.744-.291-.769-3.037-1.538-8.224-2.306-11.258a21.48,21.48,0,0,1-.7-3.655c-.067-.888-.026-1.779-.015-2.673.026-1.747-.07-3.495-.166-5.242a33.259,33.259,0,0,0-.7-6.072,1.13,1.13,0,0,0-.338-.667,1.368,1.368,0,0,0-1.016-.09,4.421,4.421,0,0,1-3.023-.716c-.384-.262-.9-.582-1.258-.291a1.253,1.253,0,0,0-.291.62,3.1,3.1,0,0,1-1.823,1.8,9.126,9.126,0,0,1-2.58.53,1.267,1.267,0,0,1-.8-.09c-.413-.253-.443-1.165-.964-1.226C423.726,478.067,423.01,479.052,422.7,479.346Z" transform="translate(-302.162 -363.205)" fill="#3f3d56"/>
    <path id="Path_80" data-name="Path 80" d="M417.012,486.927c-1.075-1.028-1.546-2.519-2.33-3.786a8.425,8.425,0,0,0-2.012-2.213,6.006,6.006,0,0,1-1.095-.929c-.277-.341-.486-.795-.906-.926a1.1,1.1,0,0,0-.981.271,9.658,9.658,0,0,0-.728.775c-1.235,1.278-3.4,1.456-4.383,2.935a2.4,2.4,0,0,0-.521,1.092,8.463,8.463,0,0,0,1.555,6.086,2.068,2.068,0,0,0,1.078.874,3.372,3.372,0,0,0,.21,1.6,42.835,42.835,0,0,0,1.983,5.4,13.069,13.069,0,0,0-.39,2.094c-.2,1.779-.015,3.585-.207,5.367-.157,1.456-.582,2.874-.6,4.333,0,.233.02.51.221.629a.669.669,0,0,0,.346.073l3.582.108a29.073,29.073,0,0,0,6.226-.262,2.59,2.59,0,0,0,.783-.248,2.631,2.631,0,0,0,1.034-2.038,17.767,17.767,0,0,0,.172-3.046c.434,1.372.949,2.79,2.26,3.384a5.069,5.069,0,0,0,2.245.271,42.282,42.282,0,0,0,4.889-.5.644.644,0,0,0,.713-.748l.017-1.59c.035-3.229-.766-6.316-1.077-9.531a20.726,20.726,0,0,0-.338-3.031c-.1-.416-.25-.824-.341-1.243a8.9,8.9,0,0,1-.146-1.243l-.227-3.2c-.108-1.482-.262-2.912-.376-4.391a21.255,21.255,0,0,0-.623-4.269c-.253-.874-.78-1.864-1.692-1.971a3.488,3.488,0,0,0-1.421.306,5.743,5.743,0,0,1-3.495-.015,4.921,4.921,0,0,0-1.089-.291,1.069,1.069,0,0,0-1,.414,1.493,1.493,0,0,0-.154.734A38.841,38.841,0,0,1,417.012,486.927Z" transform="translate(-289.583 -363.675)" fill="#116d3b"/>
    <path id="Path_81" data-name="Path 81" d="M412.958,500.88a17.681,17.681,0,0,0-4.45-3.757,3.555,3.555,0,0,0-2.21-.489,1.655,1.655,0,0,0-1.421,1.555,10.068,10.068,0,0,0,.4,1.36,14.3,14.3,0,0,0,.117,1.59,2.691,2.691,0,0,0,.582.894l2.062,2.443a13.275,13.275,0,0,0,2.871,2.758,4.316,4.316,0,0,0,3.815.533,4.689,4.689,0,0,0,2.091-1.919c.513-.815.874-1.707,1.354-2.548a12.652,12.652,0,0,1,2.912-3.532,3.236,3.236,0,0,1-1.747-.874,2.888,2.888,0,0,1-.277-.5l-.472-1.019a1.165,1.165,0,0,0-.874.329,7.332,7.332,0,0,1-.649.661c-.411.309-.967.393-1.34.745a3.552,3.552,0,0,0-.39.489A3.267,3.267,0,0,1,412.958,500.88Z" transform="translate(-290.215 -377.541)" fill="#3f3d56"/>
    <path id="Path_82" data-name="Path 82" d="M453.356,470.241c1.01-1.843.964-4.054,1.252-6.136a2.8,2.8,0,0,1,.556-1.523,2.9,2.9,0,0,1,2.49-.582c.259.029.582.151.568.411a.524.524,0,0,1-.131.247,6.928,6.928,0,0,0-1.439,3.821c.457.317,1.165-.335,1.6,0,.291.245.157.728-.017,1.077q-.609,1.214-1.255,2.411a7.741,7.741,0,0,1-1.331,1.919c-.37.355-.8.635-1.179.984-.874.818-1.4,1.974-2.3,2.772a.471.471,0,0,1-.291.148.489.489,0,0,1-.306-.137,4.415,4.415,0,0,1-1.1-1.331c-.344-.635-.291-.821.25-1.27A9.625,9.625,0,0,0,453.356,470.241Z" transform="translate(-322.381 -352.991)" fill="#be6f72"/>
    <path id="Path_83" data-name="Path 83" d="M413.538,497.521c.175.108.39.23.582.14a.605.605,0,0,0,.2-.189,6.854,6.854,0,0,0,.827-1.439.554.554,0,0,0,.061-.233c0-.186-.166-.323-.32-.431a11.872,11.872,0,0,0-2.647-1.258,5.461,5.461,0,0,0-2.388-.472,2.277,2.277,0,0,0-1.593.81c-.582.748.393.976,1,1.246A38.825,38.825,0,0,1,413.538,497.521Z" transform="translate(-292.484 -375.434)" fill="#116d3b"/>
    <path id="Path_84" data-name="Path 84" d="M423.669,517.569a.428.428,0,0,0,.122.367c.084-.414-.026-.85.061-1.267.128-.626.737-1.1.789-1.727C423.526,514.724,423.678,516.894,423.669,517.569Z" transform="translate(-303.532 -390.532)" opacity="0.1"/>
    <path id="Path_85" data-name="Path 85" d="M559.219,358.04v2.868l-11.841.719-.358-2.871Z" transform="translate(-387.736 -253.775)" opacity="0.2"/>
    <path id="Path_86" data-name="Path 86" d="M416.4,444.96c.74-.6.312-1.867.813-2.676a2.6,2.6,0,0,1,1.267-.874,5.762,5.762,0,0,1,1.849-.513,2.146,2.146,0,0,1,1.747.644c.189.216.317.478.5.7a1.893,1.893,0,0,0,1.835.635c.387-.087.789-.382.763-.778a1.1,1.1,0,0,0-.349-.623l-.833-.923a6.609,6.609,0,0,0-3.387-2.423,5.808,5.808,0,0,0-2.889.387c-.376.125-.8.312-.9.693-.07.262.035.547-.026.813-.119.527-.795.7-1.109,1.147s-.218.967-.309,1.456a12.739,12.739,0,0,0-.384,1.474c-.02.306.134.874.478.984S416.184,444.6,416.4,444.96Z" transform="translate(-297.373 -336.056)" fill="#3f3d56"/>
    <path id="Path_87" data-name="Path 87" d="M424.28,435.862a8.737,8.737,0,0,0-1.549-3.541,6.205,6.205,0,0,0-2.758-2.19,3.949,3.949,0,0,0-3.433.271,4.986,4.986,0,0,0-1.715,2.164,5.786,5.786,0,0,0-.157,5.172c.349-.425.949-.233,1.479-.387a15.425,15.425,0,0,0,1.858-.909C419.911,435.6,422.241,436.281,424.28,435.862Z" transform="translate(-296.77 -330.237)" fill="#fed253"/>
    <path id="Path_88" data-name="Path 88" d="M417.322,446.325a1.779,1.779,0,0,1,.262-1.506.189.189,0,0,1,.154-.07.2.2,0,0,1,.12.1,6.522,6.522,0,0,1,.547,1.072,1.112,1.112,0,0,0-1.165.451" transform="translate(-298.979 -340.791)" opacity="0.1"/>
    <path id="Path_89" data-name="Path 89" d="M440.557,441.557l-.1-1.04a.475.475,0,0,1,.02-.256.329.329,0,0,1,.425-.117.874.874,0,0,1,.341.341,6.116,6.116,0,0,1,.6,1.185,3.523,3.523,0,0,0-1.418.017" transform="translate(-315.409 -337.501)" opacity="0.1"/>
    <path id="Path_90" data-name="Path 90" d="M408.18,502.21v2.376l-2.006.134H395.62v-2.51Z" transform="translate(-280.425 -355.961)" opacity="0.1"/>
    <path id="Path_91" data-name="Path 91" d="M326.967,401.782v2.51h-12.56l-33.367-41.8V360.52h6.995Z" transform="translate(-199.212 -255.533)" fill="#f1c0c0"/>
    <path id="Path_92" data-name="Path 92" d="M326.967,401.782v2.51h-12.56l-33.367-41.8V360.52h6.995Z" transform="translate(-199.212 -255.533)" opacity="0.1"/>
    <path id="Path_93" data-name="Path 93" d="M326.967,401.782v2.51h-12.56l-33.367-41.8V360.52l33.548,41.262Z" transform="translate(-199.212 -255.533)" opacity="0.1"/>
    <path id="Path_94" data-name="Path 94" d="M298.682,729.034a.874.874,0,0,1-.763,1.028,5.189,5.189,0,0,0-2.242,1.165,1.6,1.6,0,0,0,0,2.274,2.21,2.21,0,0,0,1.165.317,7.892,7.892,0,0,0,3.891-.486c.856-.4,1.663-1.072,2.6-1.01.486.029,1,.256,1.439.035s.556-.839.559-1.354a10.026,10.026,0,0,0-.48-3.171,12.745,12.745,0,0,0-2.117-.291l-2.245-.291c-.425-.055-1.342-.376-1.677-.02S298.682,728.612,298.682,729.034Z" transform="translate(-212.48 -540.891)" fill="#116d3b"/>
    <path id="Path_95" data-name="Path 95" d="M352.971,698.344a7.031,7.031,0,0,0,.46,1.526,3.553,3.553,0,0,0,1.474,2.018,2.63,2.63,0,0,0,2.248-.108,1.852,1.852,0,0,0,.748-.568,2.255,2.255,0,0,0,.291-1.308,7.142,7.142,0,0,0-.582-3.294c-.443-.874-1.214-1.625-1.226-2.592l-2.653.513a.757.757,0,0,0-.39.154.673.673,0,0,0-.169.317A8.67,8.67,0,0,0,352.971,698.344Z" transform="translate(-253.37 -517.471)" fill="#116d3b"/>
    <path id="Path_96" data-name="Path 96" d="M244.249,602.164a4.335,4.335,0,0,0,.425,2.752,2.13,2.13,0,0,0,2.411,1.022.352.352,0,0,0,.218-.166.411.411,0,0,0-.038-.291,4.3,4.3,0,0,1,.09-3.238c.058-.134.183-.291.32-.239a.291.291,0,0,1,.131.134,1.523,1.523,0,0,1,.2.8,2.988,2.988,0,0,0-.023.772c.055.25.323.486.556.379a.582.582,0,0,0,.265-.376,12.415,12.415,0,0,0,.058-5.9.309.309,0,0,0-.347-.323c-1.375-.137-2.126-.466-2.912.812A7.983,7.983,0,0,0,244.249,602.164Z" transform="translate(-176.33 -448.956)" fill="#116d3b"/>
    <path id="Path_97" data-name="Path 97" d="M297.495,595.425a17.858,17.858,0,0,0-.6,8.393l.306,2.522c.1.85.207,1.7.355,2.539a6.74,6.74,0,0,1,.154,1.319,7.066,7.066,0,0,1-.207,1.3,15.139,15.139,0,0,0-.306,2.708c-.032,1.456.148,2.912.262,4.368a48.645,48.645,0,0,1-.1,8.713,3.267,3.267,0,0,0,.478,2.245,2.892,2.892,0,0,1,.422.693c.218.667-.291,1.334-.422,2.018a2.039,2.039,0,0,0,1.695,2.33c2.33.277,4.723.151,6.823,1.217.221-.646-.262-1.38-.041-2.038.14-.408.524-.673.786-1.016a2.959,2.959,0,0,0,.5-1.776,6.491,6.491,0,0,0-.431-2.408,5.21,5.21,0,0,1-.582-1.96,2.476,2.476,0,0,0-.017-1,1.571,1.571,0,0,0-.376-.469,5.92,5.92,0,0,1-1.523-3.451,15.894,15.894,0,0,1,.122-3.826,6.5,6.5,0,0,1,1.1-3.419,21.938,21.938,0,0,1,.614-8.518c.076-.256.2-.553.457-.614a.653.653,0,0,1,.559.221,3.817,3.817,0,0,1,.874,1.642,3.581,3.581,0,0,1,.274,1.989c-.07.291-.21.547-.291.827a2.452,2.452,0,0,0,.087,1.709,1.642,1.642,0,0,1,.21.644,1.783,1.783,0,0,1-.175.559,2.574,2.574,0,0,0,.242,2.082,7.542,7.542,0,0,0,1.36,1.669,6.115,6.115,0,0,0,.189,3.366.426.426,0,0,1,.038.323c-.052.111-.186.151-.291.23-.291.239-.111.69.084,1A22.962,22.962,0,0,0,311.892,624c.582.7.53,2.038,1.4,2.289a2.622,2.622,0,0,0,1.107,0,2.9,2.9,0,0,0,2.231-1.136,3.056,3.056,0,0,1,.51-.923c.268-.233.615-.274.763-.553s-.017-.646.032-.97.332-.582.422-.923c.216-.786-.7-1.433-.827-2.237-.181-1.165,1.287-2.039,1.226-3.2-.128-2.531-.21-5.073-.341-7.6a54.824,54.824,0,0,1-.07-6.811,9.578,9.578,0,0,0-.227-4.205,5.633,5.633,0,0,0-4.79-3.09,23.589,23.589,0,0,0-5.944.582A37.567,37.567,0,0,1,297.495,595.425Z" transform="translate(-213.506 -446.995)" fill="#3f3d56"/>
    <circle id="Ellipse_17" data-name="Ellipse 17" cx="4.665" cy="4.665" r="4.665" transform="translate(85.235 111.266)" fill="#fbbebe"/>
    <path id="Path_98" data-name="Path 98" d="M308.606,497.725a1.989,1.989,0,0,1-1.9,1.2,2.345,2.345,0,0,0,.7,1.954,8.294,8.294,0,0,0,7.938,2.723,3.918,3.918,0,0,0,1.564-.652,3.469,3.469,0,0,0,1.194-2.068,10.284,10.284,0,0,0,.114-2.432.629.629,0,0,0-.128-.448.64.64,0,0,0-.408-.134,7.071,7.071,0,0,1-2.877-.609,2.051,2.051,0,0,1-1.063-2.472,10.435,10.435,0,0,1-1.992.236c-.7.1-1.4.21-2.1.338a3.825,3.825,0,0,0-.987.186c-.422.218-.265.111-.166.507A2.409,2.409,0,0,1,308.606,497.725Z" transform="translate(-220.605 -376.259)" fill="#fbbebe"/>
    <path id="Path_99" data-name="Path 99" d="M270.851,506.345a7.73,7.73,0,0,1-1.867-.207,2.621,2.621,0,0,1-1.532-1.022c-.216-.326-.355-.737-.7-.92-.562-.291-1.2.2-1.651.652a6,6,0,0,1-1.4,1.13c-.623.329-1.351.446-1.939.833a4.874,4.874,0,0,0-1.165,1.258l-4.126,5.62c-1.657,2.26-3.1,4.686-4.575,7.071a50,50,0,0,0-2.912,6.669.745.745,0,0,0-.09.448c.035.151.218.274.347.186-.434.431-.052,1.165-.154,1.771a2.173,2.173,0,0,1-.693,1.086,5.475,5.475,0,0,1,1.922.09,5.894,5.894,0,0,1,1.817.874c.352-.055.32-.681.582-.914.157-.137.39-.119.6-.16.778-.151,1.086-1.086,1.683-1.613.5-.44,1.2-.582,1.73-1,.856-.673,1.04-1.87,1.488-2.863.382-.842.981-1.576,1.316-2.437a10.491,10.491,0,0,1,.635-1.68,4.811,4.811,0,0,1,2.33-1.675,3.858,3.858,0,0,1,1.773-.475,16.467,16.467,0,0,0,.09,4.01c.1.466.245.92.367,1.383a26.049,26.049,0,0,1,.713,6.407,19.49,19.49,0,0,1,4.077-.489c1.08-.032,2.158.108,3.238.087,1.281-.023,2.548-.271,3.829-.358a7.153,7.153,0,0,1,3.754.582,35.667,35.667,0,0,1,.154-5.533l.309-2.895a17.782,17.782,0,0,1,.387-2.5c.169-.664.414-1.3.6-1.966a22.5,22.5,0,0,0,.411-7.243,9.127,9.127,0,0,0-1.109-3.582,9.684,9.684,0,0,0-.7-1.188,6.881,6.881,0,0,0-6.016-2.825,1.219,1.219,0,0,0-.431.093,1.436,1.436,0,0,0-.55.655A7.135,7.135,0,0,1,270.851,506.345Z" transform="translate(-179.3 -382.042)" fill="#3f3d56"/>
    <path id="Path_100" data-name="Path 100" d="M302.284,473.7c.131-.291.483-.4.7-.632.414-.443.227-1.15.291-1.747a2.51,2.51,0,0,1,1.66-1.916,5.364,5.364,0,0,1,2.621-.166,2.537,2.537,0,0,1,1.182.393c.151.111.291.253.434.355a1.165,1.165,0,0,0,1.584-.37c-1.031-1.241-2.172-2.551-3.739-2.933a7.669,7.669,0,0,0-1.634-.154,5.305,5.305,0,0,0-2.143.25,3.573,3.573,0,0,0-1.881,2.172,10.562,10.562,0,0,0-.457,2.912,10.96,10.96,0,0,0,0,1.98,5.475,5.475,0,0,0,.973,2.5.754.754,0,0,0,.291.271C303.493,477.2,302.177,473.946,302.284,473.7Z" transform="translate(-216.487 -356.228)" fill="#3f3d56"/>
    <path id="Path_101" data-name="Path 101" d="M308.242,461.621a5.716,5.716,0,0,0-2.178-3.416,8.03,8.03,0,0,0-2.927-1.762,3.911,3.911,0,0,0-3.3.4,5.074,5.074,0,0,0-1.607,2.21,6.957,6.957,0,0,0-.7,3.2,3.453,3.453,0,0,0,1.564,2.772,2.941,2.941,0,0,1,1.514-.976,74.143,74.143,0,0,1,7.639-2.435Z" transform="translate(-214.126 -348.946)" fill="#fed253"/>
    <path id="Path_102" data-name="Path 102" d="M303.229,472.72c.093,0,.154.1.2.175a7.379,7.379,0,0,1,.609,1.165c-.341.073-.926.154-1.1-.146C302.853,473.762,302.961,472.705,303.229,472.72Z" transform="translate(-217.945 -360.615)" opacity="0.1"/>
    <path id="Path_103" data-name="Path 103" d="M326.421,466.96c-.07.067-.151-.07-.151-.169v-1.13a.166.166,0,0,1,.02-.09.137.137,0,0,1,.1-.047c.236-.026.431.175.582.367a6.153,6.153,0,0,1,.6.993l-1.232-.038" transform="translate(-234.5 -355.514)" opacity="0.1"/>
    <path id="Path_104" data-name="Path 104" d="M356.873,516.491a7.618,7.618,0,0,1,.856-.7,12.912,12.912,0,0,1,2.688-1.095,3.547,3.547,0,0,0,2.178-1.8,4.282,4.282,0,0,0,.169-1.747,1.747,1.747,0,0,0-.128-.719,1.43,1.43,0,0,0-.46-.5,6.656,6.656,0,0,0-4.4-.888,27.6,27.6,0,0,0-9.729,2.429.844.844,0,0,0-.408.291.834.834,0,0,0-.079.4,6.7,6.7,0,0,0,.329,2.536c.4,1.037,1.229,1.872,1.575,2.93.157.475.21.979.347,1.456a2.039,2.039,0,0,0,.818,1.217c1.15.687,2.237-.236,3.034-.952Z" transform="translate(-249.579 -386.334)" fill="#3f3d56"/>
    <path id="Path_105" data-name="Path 105" d="M302.451,514.724l-1.476-3.221a11.268,11.268,0,0,1-.559-1.377c-.169-.562-.25-1.144-.408-1.709-.518-1.881-1.826-3.448-2.464-5.291a1,1,0,0,0-.239-.446.777.777,0,0,0-.649-.116,10.138,10.138,0,0,0-2.4,1.217c-.379.175-.786.291-1.165.492a1.456,1.456,0,0,0-.78.929,2.271,2.271,0,0,0,.317,1.308,14.768,14.768,0,0,1,1.008,5.743,6.106,6.106,0,0,1-.818,3.786c-1.494,2.038-.539,5.032.02,7.5.067.291.146.606.192.914a8.413,8.413,0,0,1,.067,1.165,9.116,9.116,0,0,1-.62,3.841,4.3,4.3,0,0,0,1.747.5q2.536.323,5.093.454a5.551,5.551,0,0,0,1.6-.082,2.912,2.912,0,0,0,2.152-2.854,3.6,3.6,0,0,0,.85,2.242,3.387,3.387,0,0,0,2.234.687,41.523,41.523,0,0,0,6.727-.189,1.166,1.166,0,0,0,.413-.1c.431-.216.454-.81.419-1.287-.064-.894-.131-1.788-.239-2.676a10.95,10.95,0,0,1-.14-1.712,9.854,9.854,0,0,1,.291-1.747,19.814,19.814,0,0,0,.568-5.533,9.345,9.345,0,0,1-.055-1.366c.076-1.028.617-2.006.515-3.029a49.58,49.58,0,0,0-1.366-8.99,2.33,2.33,0,0,0-.795-1.372c-.582-.39-1.4-.186-2.068-.434a5.168,5.168,0,0,1-.888-.527,4.077,4.077,0,0,0-2.006-.617,1.7,1.7,0,0,0-1.456.53,2.113,2.113,0,0,0-.291.8c-.422,1.776-.917,3.532-1.412,5.288l-.475,1.683-1.273,4.52C302.494,514.122,302.579,514.27,302.451,514.724Z" transform="translate(-210.221 -380.535)" fill="#116d3b"/>
    <path id="Path_106" data-name="Path 106" d="M328.8,400.25l28.169,29.6v2.51h-12.56L323.24,404.735" transform="translate(-229.123 -283.693)" fill="#f1c0c0"/>
    <path id="Path_107" data-name="Path 107" d="M328.8,400.25l28.169,29.6v2.51h-12.56L323.24,404.735" transform="translate(-229.123 -283.693)" opacity="0.1"/>
    <path id="Path_108" data-name="Path 108" d="M323.688,414.31l.09.032,20.81,25.475h12.379v2.51h-12.56L323.24,414.7Z" transform="translate(-229.123 -293.659)" opacity="0.1"/>
    <path id="Path_109" data-name="Path 109" d="M340.878,501.248c-1.019.446-2.152,1.016-2.458,2.088a1.046,1.046,0,0,0,1.031,1.4,3.494,3.494,0,0,0,1.4-.256l6.013-1.986c.163-.052.349-.131.39-.291a.5.5,0,0,0-.058-.291c-.186-.454-.37-1.383-.76-1.7-.32-.256-.955-.166-1.342-.16A10.885,10.885,0,0,0,340.878,501.248Z" transform="translate(-243.072 -379.973)" fill="#116d3b"/>
    <path id="Path_110" data-name="Path 110" d="M362.284,501.252a9.673,9.673,0,0,1,2.985.463,5.318,5.318,0,0,1,2.472,1.689,1.852,1.852,0,0,1,.39.763c.058.291,1.008.466.8.664.638-.1.486.2,1.133.192a2.14,2.14,0,0,0,1.733-.687,2.251,2.251,0,0,0,.341-1.424,2.425,2.425,0,0,0-.192-1.008,2.975,2.975,0,0,0-1.578-1.223l-5.2-2.379a3.454,3.454,0,0,0-.961-.341,3.6,3.6,0,0,0-.847.02l-2.356.271a3.532,3.532,0,0,1,1.61,3.107" transform="translate(-259.117 -378.495)" fill="#3f3d56"/>
  </g>
</svg>
