<svg xmlns="http://www.w3.org/2000/svg" width="14.483" height="14.47" viewBox="0 0 14.483 14.47">
  <path id="cross-24-512" d="M15.79,3.232a.557.557,0,0,1,0,.785L11.464,8.339a.558.558,0,0,0,0,.786l4.324,4.323a.558.558,0,0,1,0,.786L14.213,15.8a.561.561,0,0,1-.787,0L9.1,11.481a.559.559,0,0,0-.787,0L3.991,15.8a.559.559,0,0,1-.787,0L1.631,14.229a.558.558,0,0,1,0-.786L5.959,9.122a.558.558,0,0,0,0-.786L1.635,4.012a.557.557,0,0,1,0-.786l1.574-1.57a.56.56,0,0,1,.787,0L8.318,5.979a.558.558,0,0,0,.787,0l4.326-4.32a.56.56,0,0,1,.787,0Z" transform="translate(-1.469 -1.495)" fill="#116d3b"/>
</svg>
