<svg id="hamburger" xmlns="http://www.w3.org/2000/svg" width="24" height="15" viewBox="0 0 24 15">
  <path id="bars" d="M.857,63H23.143A.843.843,0,0,0,24,62.16v-1.3A.857.857,0,0,0,23.143,60H.857A.857.857,0,0,0,0,60.857v1.3A.843.843,0,0,0,.857,63Z" transform="translate(0 -60)" fill="#2f855a"/>
  <path id="bars-2" data-name="bars" d="M.857,63H23.143A.843.843,0,0,0,24,62.16v-1.3A.857.857,0,0,0,23.143,60H.857A.857.857,0,0,0,0,60.857v1.3A.843.843,0,0,0,.857,63Z" transform="translate(0 -54)" fill="#2f855a"/>
  <path id="bars-3" data-name="bars" d="M.857,63H23.143A.843.843,0,0,0,24,62.16v-1.3A.857.857,0,0,0,23.143,60H.857A.857.857,0,0,0,0,60.857v1.3A.843.843,0,0,0,.857,63Z" transform="translate(0 -48)" fill="#2f855a"/>
</svg>
